<svg xmlns="http://www.w3.org/2000/svg" xmlns:xlink="http://www.w3.org/1999/xlink" viewBox="0 0 40 34.18"><defs><style>.cls-1{isolation:isolate;}.cls-2{fill:#00685e;}.cls-3{fill:#af7e34;}.cls-4{fill:url(#linear-gradient);}.cls-5{fill:url(#linear-gradient-2);}.cls-6{fill:url(#linear-gradient-3);}.cls-7{fill:url(#linear-gradient-4);}.cls-10,.cls-8,.cls-9{mix-blend-mode:multiply;opacity:0.4;}.cls-8{fill:url(#linear-gradient-5);}.cls-9{fill:url(#linear-gradient-6);}.cls-10{fill:url(#linear-gradient-7);}</style><linearGradient id="linear-gradient" x1="31.08" y1="10.24" x2="28.2" y2="19.66" gradientUnits="userSpaceOnUse"><stop offset="0"/><stop offset="1" stop-color="#00685e" stop-opacity="0"/></linearGradient><linearGradient id="linear-gradient-2" x1="29.43" y1="22.15" x2="27.83" y2="25.35" xlink:href="#linear-gradient"/><linearGradient id="linear-gradient-3" x1="16.66" y1="21.75" x2="11.3" y2="22.67" xlink:href="#linear-gradient"/><linearGradient id="linear-gradient-4" x1="20.68" y1="22.48" x2="18.98" y2="22.53" xlink:href="#linear-gradient"/><linearGradient id="linear-gradient-5" x1="1849.49" y1="-78.27" x2="1848.25" y2="-77.05" gradientTransform="translate(-1763.44 498.48) rotate(-12.88)" gradientUnits="userSpaceOnUse"><stop offset="0"/><stop offset="1" stop-color="#af7e34" stop-opacity="0"/></linearGradient><linearGradient id="linear-gradient-6" x1="1849.5" y1="-78.51" x2="1849.59" y2="-79.87" xlink:href="#linear-gradient-5"/><linearGradient id="linear-gradient-7" x1="6.15" y1="11.16" x2="5.01" y2="16.74" gradientTransform="matrix(1, 0, 0, 1, 0, 0)" xlink:href="#linear-gradient-5"/></defs><g class="cls-1"><g id="Layer_2" data-name="Layer 2"><g id="Layer_1-2" data-name="Layer 1"><path class="cls-2" d="M33.21,17.18c-.2-2.26-.76-5-2.62-6.5s-4.21-.51-5.42,1.4C22.7,16,24,21.79,28.47,23.38a4.8,4.8,0,0,1-4.65-.3,5,5,0,0,1-2.17-2.82c-.41-1.12-.57-2.38-1.16-3.68-.43-1-1,2.19-1,2.55-.11.67-.45,2.9-.76,4.29-.36,1.65-1.15,4.07-2.39,5.28a7.51,7.51,0,0,1-5.88,2.22,10.86,10.86,0,0,1-3.74-1.15,19.38,19.38,0,0,1-1.87-1.2c-.46-.33.38.87.72,1.28A15,15,0,0,0,9,33.05a6.64,6.64,0,0,0,8.25-.75,10.67,10.67,0,0,0,2.64-5.69c.1-.58.17-1.16.24-1.74a15.06,15.06,0,0,1,.29-1.56,9.6,9.6,0,0,0,1.33,2.93,5.89,5.89,0,0,0,6.74,2.22,6.88,6.88,0,0,0,3.93-4.38,15.12,15.12,0,0,0,.81-4.7A19.65,19.65,0,0,0,33.21,17.18Zm-26,14.23s0,0,0,0Zm3.21,1.8Zm0,0h0ZM31.54,19.11,30.34,19a7.82,7.82,0,0,1-2.95-1A5.57,5.57,0,0,1,26.17,17L26,16.87a3.49,3.49,0,0,1,.71-1.13,3,3,0,0,1,1.62-.87,3,3,0,0,1,3,1.92A4.15,4.15,0,0,1,31.54,19.11Z"/><path class="cls-3" d="M26.63,31.35a1.35,1.35,0,0,0-.47-.32,3.18,3.18,0,0,0-.72-.17,7,7,0,0,1-1.34-.2.84.84,0,0,0,.06.24.57.57,0,0,0,.1.19.42.42,0,0,0,.18.11.7.7,0,0,0,.27,0,.49.49,0,0,0-.23.11.91.91,0,0,0-.18.21,1.19,1.19,0,0,0-.11.26.82.82,0,0,0,0,.26,2.66,2.66,0,0,0,0,.3.28.28,0,0,0,.12.21H21.47c0-.06,0-.12,0-.2s-.1-.39-.15-.54a1.92,1.92,0,0,0-.14-.37c-.15-.33-.34-.5-.57-.5a.7.7,0,0,0-.5.32c-.18.2-.33.76-.62,1.19a4.66,4.66,0,0,1-.95,1.19,2.36,2.36,0,0,1-.65.38,1.46,1.46,0,0,0,1.08,0c.3-.17.83-1.19.94-1.13l.46.26.26.15.21.11a.43.43,0,0,0,.14,0c.11,0,.23-.11.35-.33H27v-.59a3,3,0,0,0-.08-.72A1.34,1.34,0,0,0,26.63,31.35Zm-6.12,1.23a4,4,0,0,0-.54-.25l.14-.25a1.12,1.12,0,0,1,.17-.22q.13-.12.18-.12c.11,0,.19.09.26.29a4.31,4.31,0,0,1,.17.77Zm4.63-.09a.16.16,0,0,1-.16.1.24.24,0,0,1-.18-.06.32.32,0,0,1-.1-.13,1,1,0,0,1,0-.17v-.16a.71.71,0,0,1,0-.14.57.57,0,0,1,0-.14.3.3,0,0,1,.07-.11.15.15,0,0,1,.11,0c.08,0,.15.05.22.16a.84.84,0,0,1,.09.42A.54.54,0,0,1,25.14,32.49Zm.51.1a.9.9,0,0,1,.05-.19,1,1,0,0,0,0-.25,1.25,1.25,0,0,0-.07-.45.68.68,0,0,0-.22-.32,1.37,1.37,0,0,1,.43.13.65.65,0,0,1,.26.26,1,1,0,0,1,.13.36,3.08,3.08,0,0,1,0,.46Z"/><path class="cls-3" d="M30.32,29.77a.4.4,0,0,0-.29.12.39.39,0,0,0-.11.29.37.37,0,0,0,.11.28.44.44,0,0,0,.29.11.38.38,0,0,0,.39-.39.44.44,0,0,0-.11-.29A.38.38,0,0,0,30.32,29.77Z"/><path class="cls-3" d="M30.35,31.09l-.32.1v1.4H28.4V29.91a1.37,1.37,0,0,1-.33.17,1.36,1.36,0,0,1-.33.09v3h3v-2.3A2,2,0,0,1,30.35,31.09Z"/><path class="cls-3" d="M33.26,31.52a2.34,2.34,0,0,0-.45-.5,1.66,1.66,0,0,0-.64-.31.69.69,0,0,1-.15.58,1.72,1.72,0,0,1,.5.32,1.76,1.76,0,0,1,.28.36,1.46,1.46,0,0,1,.12.35,1.57,1.57,0,0,1,0,.27H31.89a1.46,1.46,0,0,1-.56-.08s0,.58.51.65h1.78v-.57a1.71,1.71,0,0,0-.09-.5A2.45,2.45,0,0,0,33.26,31.52Z"/><path class="cls-3" d="M35.11,30.86a2.56,2.56,0,0,1-.31.16,2.57,2.57,0,0,1-.32.05,5.91,5.91,0,0,1,.14,2.28,1.53,1.53,0,0,1-.39.52,1.45,1.45,0,0,1-.53.19,1.73,1.73,0,0,0,1.17,0c.12-.07.42-.32.42-1.05,0-.29,0-.62,0-1A9.73,9.73,0,0,0,35.11,30.86Z"/><path class="cls-3" d="M34.61,30.57a.37.37,0,0,0,.27-.11.38.38,0,0,0,.12-.28.4.4,0,0,0-.12-.29.34.34,0,0,0-.27-.12.38.38,0,0,0-.29.12.4.4,0,0,0-.12.29.38.38,0,0,0,.12.28A.42.42,0,0,0,34.61,30.57Z"/><path class="cls-3" d="M37.89,32c0-.33-.07-.69-.13-1.06a4.45,4.45,0,0,0-.94.19,2.38,2.38,0,0,0-.64.32,1.16,1.16,0,0,0-.37.4.88.88,0,0,0-.12.43,1.48,1.48,0,0,0,.05.39.53.53,0,0,0,.16.27.63.63,0,0,0,.29.16,1.47,1.47,0,0,0,.45,0h.65a.9.9,0,0,1-.52.72,1.33,1.33,0,0,1-.48.18s.8.27,1.21,0a1,1,0,0,0,.42-.89V33C37.92,32.68,37.91,32.35,37.89,32Zm-1.21.58a.46.46,0,0,1-.29-.08.29.29,0,0,1-.09-.23.55.55,0,0,1,.26-.46,1.87,1.87,0,0,1,.65-.26,4.88,4.88,0,0,1,.06.52c0,.17,0,.34,0,.51Z"/><path class="cls-2" d="M39.22,24.37c-.12.43-.3.93-.45,1.34s-.53,1.32-.45.76a1.24,1.24,0,0,0-.45-1.23,4.91,4.91,0,0,0-2-.65c-.8-.14-1.6-.24-2.39-.37-.33-.06-.67-.11-1-.14a15.12,15.12,0,0,0,.81-4.7l1.07.22c1.34.33,3.53,1.15,4.31,2.37a3.92,3.92,0,0,1,.61,1.33A2,2,0,0,1,39.22,24.37Z"/><path class="cls-4" d="M32.46,24.08a15.12,15.12,0,0,0,.81-4.7,19.65,19.65,0,0,0-.06-2.2c-.2-2.26-.76-5-2.62-6.5s-4.21-.51-5.42,1.4C22.7,16,24,21.79,28.47,23.38m3.07-4.27L30.34,19a7.82,7.82,0,0,1-2.95-1A5.57,5.57,0,0,1,26.17,17L26,16.87a3.49,3.49,0,0,1,.71-1.13,3,3,0,0,1,1.62-.87,3,3,0,0,1,3,1.92A4.15,4.15,0,0,1,31.54,19.11Z"/><path class="cls-2" d="M39.9,21.06c-.08.85-.14.94-.17.8s-.08-.4-.14-.73a6.43,6.43,0,0,0-.68-1.85c-1-2-2.9-3.28-4.56-4.64-2.29-1.87-4.9-3.28-7.23-5.08a8.52,8.52,0,0,1-2.86-3.05,6.83,6.83,0,0,1-.05-4A8.29,8.29,0,0,0,27.4,5.91c1.2.8,2.46,1.49,3.71,2.21,3.2,1.86,6.56,4.24,8.28,7.63C40.11,17.17,40.06,19.51,39.9,21.06Z"/><path class="cls-2" d="M20.43.27A13.32,13.32,0,0,0,15.37.21c-5.2.7-9.58,5-10.19,5.71h0l0,0a18.78,18.78,0,0,0-3.22,4.57A16.85,16.85,0,0,0,0,18.22a11.54,11.54,0,0,0,1.46,5.6c1.83,3.06,5.67,4.91,9.17,3.62a7,7,0,0,0,3-2.17A11.9,11.9,0,0,0,16,20.5c.14-.56.28-1.38.4-2.23s.09-.27.31-1.66c.14-.93.41-2.69-.19-3.52a2.86,2.86,0,0,0-2.22-.9,11,11,0,0,1-2.74-.42,2.28,2.28,0,0,1-.91-.51.76.76,0,0,1-.11-.14,1.33,1.33,0,0,1-.22-.77,2,2,0,0,1,.1-.84A4.46,4.46,0,0,1,12.23,7.9C14,7,15.45,7.26,16.28,9.26c.19.46.91-1.38,1-1.5.24-.65,1-2.23.68-3-1-2.46-3.07-2.09-4.88-.61a11,11,0,0,0-2.9,3.49,10.25,10.25,0,0,0-.41,1h0v0l-.18.54c-.68,2-2.08,6,.17,7.12,1.21.61,2.66.39,3.95.68a1.77,1.77,0,0,1,1.49,1.59s0,.09,0,.14a7.37,7.37,0,0,1-.73,1.39A6.66,6.66,0,0,1,11,22.84,7.38,7.38,0,0,1,6.68,23a7.88,7.88,0,0,1-4.9-4.44A6.92,6.92,0,0,1,1.34,15C1.56,12.24,2.93,9.78,5,7.14c2.69-3.11,5.24-5,8.4-6A14.9,14.9,0,0,1,19.36.45,16.09,16.09,0,0,1,22.47,1,8.71,8.71,0,0,0,20.43.27Z"/><path class="cls-3" d="M6,13.41s-1.3,1-.53,4.82a6.45,6.45,0,0,1-1-5.66A2.57,2.57,0,0,0,6,13.41Z"/><path class="cls-5" d="M32.46,24.07l-4-.68a4.78,4.78,0,0,1-3.68.17c-1-.26,5.16,4.14,5.16,4.14A7.38,7.38,0,0,0,32.46,24.07Z"/><path class="cls-6" d="M15.16,18.73s.29,4.49-1.39,6.41S11,22.82,11,22.82A6.17,6.17,0,0,0,13.72,21,7.73,7.73,0,0,0,15.16,18.73Z"/><path class="cls-7" d="M20.46,23.31a16.57,16.57,0,0,0-.35,2.07c0,.36-.12.82-.2,1.31-.24,1.41-.52,2-.9,1.52a11.38,11.38,0,0,1-1-2.55,17.45,17.45,0,0,0,.62-2.1c.23-1.09.46-2.39.62-3.41.08-.46.14-.86.19-1.16a10.87,10.87,0,0,1,.62-2.34A18.9,18.9,0,0,0,20.46,23.31Z"/><path class="cls-3" d="M22.75,10.14h-.58s-.18.49-.2.54a5.09,5.09,0,0,1-.3.5,3.4,3.4,0,0,1-.82.83,3.16,3.16,0,0,1-.94.46,3.12,3.12,0,0,1-1,.15,9.35,9.35,0,0,0,1.3-.9,7.73,7.73,0,0,0,.67-.6c.16-.16.3-.32.45-.48a3.55,3.55,0,0,0,.32-.53s-.17,0-.2,0a.64.64,0,0,1-.2,0,1.19,1.19,0,0,1-.38-.17,1,1,0,0,1-.44-.68,1.1,1.1,0,0,1,0-.18,1.88,1.88,0,0,1,.23-.83,1.47,1.47,0,0,1,.71-.78.68.68,0,0,1,.66.12,1,1,0,0,1,.25.59,5.59,5.59,0,0,1,.05,1.08l.48,0ZM21.44,8.33a.37.37,0,0,0-.45.09.4.4,0,0,0-.06.44.27.27,0,0,0,.16.17l.31.1.19,0,.19,0s0-.19,0-.2,0-.16-.05-.24a.7.7,0,0,0-.13-.32A.53.53,0,0,0,21.44,8.33Z"/><path class="cls-8" d="M22.17,10.13l-.56,0-.08.16a2.05,2.05,0,0,1-.16.26l-.19.23c-.09.11-.21.22-.3.32a2,2,0,0,1-.21.2c-.47.45.59.39.59.39a3.81,3.81,0,0,0,.47-.57c.08-.13.17-.28.24-.42l.11-.32C22.11,10.27,22.15,10.2,22.17,10.13Z"/><path class="cls-9" d="M22.27,9.23a5.62,5.62,0,0,0,0-.94A3,3,0,0,0,22.18,8c-.12-.29-.83.35-.83.35a.38.38,0,0,1,.27.21,1.21,1.21,0,0,1,.13.47,1.09,1.09,0,0,1,0,.17.11.11,0,0,1,0,.06Z"/><path class="cls-10" d="M5.49,18.23S4.22,15,5.06,13a2.18,2.18,0,0,0,1,.4,2.3,2.3,0,0,0-.59,1.09,4.43,4.43,0,0,0-.15.85,8.66,8.66,0,0,0,.08,2.1C5.4,17.72,5.44,18,5.49,18.23Z"/></g></g></g></svg>