<svg xmlns="http://www.w3.org/2000/svg" xmlns:xlink="http://www.w3.org/1999/xlink" viewBox="0 0 44.28 37.83"><defs><style>.cls-1{isolation:isolate;}.cls-2{fill:#c8c9c9;}.cls-3{fill:#fff;}.cls-4{fill:url(#linear-gradient);}.cls-5{fill:url(#linear-gradient-2);}.cls-6{fill:url(#linear-gradient-3);}.cls-7{fill:url(#linear-gradient-4);}.cls-10,.cls-8,.cls-9{mix-blend-mode:multiply;opacity:0.4;}.cls-8{fill:url(#linear-gradient-5);}.cls-9{fill:url(#linear-gradient-6);}.cls-10{fill:url(#linear-gradient-7);}</style><linearGradient id="linear-gradient" x1="34.4" y1="11.34" x2="31.21" y2="21.76" gradientUnits="userSpaceOnUse"><stop offset="0" stop-color="#030303"/><stop offset="1" stop-color="#fff" stop-opacity="0"/></linearGradient><linearGradient id="linear-gradient-2" x1="32.58" y1="24.52" x2="30.81" y2="28.06" xlink:href="#linear-gradient"/><linearGradient id="linear-gradient-3" x1="18.44" y1="24.07" x2="12.51" y2="25.1" xlink:href="#linear-gradient"/><linearGradient id="linear-gradient-4" x1="22.89" y1="24.89" x2="21.01" y2="24.94" xlink:href="#linear-gradient"/><linearGradient id="linear-gradient-5" x1="1834.9" y1="-80.08" x2="1833.53" y2="-78.73" gradientTransform="translate(-1746.46 498.04) rotate(-12.88)" gradientUnits="userSpaceOnUse"><stop offset="0" stop-color="#030303"/><stop offset="1" stop-color="#c8c9c9" stop-opacity="0"/></linearGradient><linearGradient id="linear-gradient-6" x1="1834.91" y1="-80.35" x2="1835.02" y2="-81.85" xlink:href="#linear-gradient-5"/><linearGradient id="linear-gradient-7" x1="6.81" y1="12.35" x2="5.55" y2="18.53" gradientTransform="matrix(1, 0, 0, 1, 0, 0)" xlink:href="#linear-gradient-5"/></defs><g class="cls-1"><g id="Layer_2" data-name="Layer 2"><g id="Layer_1-2" data-name="Layer 1"><path class="cls-2" d="M29.48,34.7a1.4,1.4,0,0,0-.52-.35,3.16,3.16,0,0,0-.8-.18,8.87,8.87,0,0,1-1.48-.23,1.07,1.07,0,0,0,.06.27.56.56,0,0,0,.12.2.46.46,0,0,0,.2.13.85.85,0,0,0,.29,0,.58.58,0,0,0-.25.12,1.16,1.16,0,0,0-.2.24,1.48,1.48,0,0,0-.12.29,1,1,0,0,0-.05.28,3.28,3.28,0,0,0,0,.34.31.31,0,0,0,.14.23H23.77a2.07,2.07,0,0,0,0-.22c-.06-.24-.11-.44-.16-.6a3.06,3.06,0,0,0-.15-.41c-.17-.37-.39-.55-.64-.55a.75.75,0,0,0-.55.34c-.2.23-.37.85-.69,1.33a5.18,5.18,0,0,1-1.05,1.31,2.53,2.53,0,0,1-.72.43,1.64,1.64,0,0,0,1.19,0c.34-.19.92-1.33,1.05-1.26l.5.29.3.17L23,37a.59.59,0,0,0,.17,0c.12,0,.24-.12.38-.36h6.28v-.66a3,3,0,0,0-.09-.79A1.3,1.3,0,0,0,29.48,34.7Zm-6.77,1.37a5.74,5.74,0,0,0-.6-.28,1.64,1.64,0,0,1,.16-.28,1.25,1.25,0,0,1,.18-.24c.1-.09.17-.14.2-.14s.21.11.29.33a5,5,0,0,1,.18.84ZM27.83,36a.19.19,0,0,1-.18.12.3.3,0,0,1-.2-.06.39.39,0,0,1-.1-.16.59.59,0,0,1-.05-.19c0-.06,0-.12,0-.16a.88.88,0,0,1,0-.16.75.75,0,0,1,0-.16.38.38,0,0,1,.09-.12.17.17,0,0,1,.12,0c.09,0,.16.06.23.18a.9.9,0,0,1,.1.46A.61.61,0,0,1,27.83,36Zm.56.12c0-.06,0-.13.05-.22a.77.77,0,0,0,0-.27,1.35,1.35,0,0,0-.08-.5.69.69,0,0,0-.24-.35,1.18,1.18,0,0,1,.48.15.76.76,0,0,1,.29.27,1.24,1.24,0,0,1,.14.41,2.59,2.59,0,0,1,.05.51Z"/><path class="cls-2" d="M33.56,33a.4.4,0,0,0-.31.13.42.42,0,0,0-.13.32.38.38,0,0,0,.13.3.4.4,0,0,0,.31.13.39.39,0,0,0,.31-.13.42.42,0,0,0,.13-.3.46.46,0,0,0-.13-.32A.39.39,0,0,0,33.56,33Z"/><path class="cls-2" d="M33.59,34.41a1.91,1.91,0,0,1-.35.12v1.55h-1.8v-3a1.46,1.46,0,0,1-.37.19,1.41,1.41,0,0,1-.37.1v3.31H34V34.16A2,2,0,0,1,33.59,34.41Z"/><path class="cls-2" d="M36.82,34.9a2.64,2.64,0,0,0-.5-.56,1.8,1.8,0,0,0-.71-.34,1,1,0,0,1,0,.34,1.21,1.21,0,0,1-.15.3A1.93,1.93,0,0,1,36,35a1.59,1.59,0,0,1,.3.41,1.26,1.26,0,0,1,.14.38,1.3,1.3,0,0,1,0,.3H35.3a1.6,1.6,0,0,1-.62-.09s0,.64.56.72h2v-.63a1.79,1.79,0,0,0-.1-.56A2.32,2.32,0,0,0,36.82,34.9Z"/><path class="cls-2" d="M38.87,34.17a2.27,2.27,0,0,1-.35.17,1.72,1.72,0,0,1-.35,0,6.57,6.57,0,0,1,.15,2.53,1.61,1.61,0,0,1-.43.57,1.72,1.72,0,0,1-.59.22,2,2,0,0,0,1.3,0c.14-.08.47-.37.47-1.17,0-.32,0-.69,0-1.1A11.3,11.3,0,0,0,38.87,34.17Z"/><path class="cls-2" d="M38.31,33.84a.42.42,0,0,0,.31-.13.41.41,0,0,0,.12-.3.45.45,0,0,0-.12-.32.42.42,0,0,0-.31-.13.44.44,0,0,0-.32.13.42.42,0,0,0-.13.32.38.38,0,0,0,.13.3A.44.44,0,0,0,38.31,33.84Z"/><path class="cls-2" d="M41.94,35.44c0-.37-.07-.76-.14-1.18a4.65,4.65,0,0,0-1,.21,2.76,2.76,0,0,0-.71.35,1.42,1.42,0,0,0-.41.45,1,1,0,0,0-.13.47,1.75,1.75,0,0,0,.05.43.73.73,0,0,0,.18.31.65.65,0,0,0,.33.17,1.73,1.73,0,0,0,.49.06h.72a1,1,0,0,1-.58.79,1.23,1.23,0,0,1-.53.21s.89.29,1.34,0a1.12,1.12,0,0,0,.46-1c0-.08,0-.14,0-.17C42,36.18,42,35.81,41.94,35.44Zm-1.33.64a.5.5,0,0,1-.33-.09.34.34,0,0,1-.09-.26.58.58,0,0,1,.28-.5,2,2,0,0,1,.72-.29,3.68,3.68,0,0,1,.06.57l0,.57Z"/><path class="cls-3" d="M43.41,27a15.14,15.14,0,0,1-.5,1.48c-.17.46-.57,1.46-.49.84a1.35,1.35,0,0,0-.5-1.36,5.43,5.43,0,0,0-2.23-.72c-.88-.15-1.76-.27-2.64-.41-.37-.06-.74-.12-1.12-.16a16.47,16.47,0,0,0,.9-5.2L38,21.7c1.48.36,3.91,1.27,4.78,2.62a4.53,4.53,0,0,1,.68,1.48A2.25,2.25,0,0,1,43.41,27Z"/><path class="cls-3" d="M36.76,19c-.21-2.51-.83-5.52-2.9-7.2s-4.66-.56-6,1.55c-2.74,4.33-1.29,10.75,3.65,12.51a5.32,5.32,0,0,1-5.15-.33A5.5,5.5,0,0,1,24,22.43a42.28,42.28,0,0,0-1.28-4.07c-.48-1.08-1.09,2.42-1.16,2.81-.12.75-.5,3.22-.84,4.75-.4,1.83-1.27,4.52-2.65,5.85a8.24,8.24,0,0,1-6.51,2.45A12.19,12.19,0,0,1,7.38,33a24.13,24.13,0,0,1-2.07-1.34c-.51-.36.43,1,.81,1.42A16.29,16.29,0,0,0,10,36.59a7.36,7.36,0,0,0,9.13-.84,11.86,11.86,0,0,0,2.92-6.3c.11-.63.19-1.27.27-1.92a17.42,17.42,0,0,1,.31-1.73,10.89,10.89,0,0,0,1.48,3.25,6.5,6.5,0,0,0,7.46,2.45,7.61,7.61,0,0,0,4.35-4.85,16.47,16.47,0,0,0,.9-5.2A19.21,19.21,0,0,0,36.76,19ZM8,34.77s0,0,0,0Zm3.55,2Zm0,0h0Zm.06,0h0ZM34.91,21.16,33.59,21a8.56,8.56,0,0,1-3.27-1.06,6.23,6.23,0,0,1-1.35-1l-.17-.2a4.16,4.16,0,0,1,.79-1.24,3.33,3.33,0,0,1,1.8-1,3.26,3.26,0,0,1,3.28,2.13A4.57,4.57,0,0,1,34.91,21.16Z"/><path class="cls-4" d="M35.93,26.65a16.47,16.47,0,0,0,.9-5.2A19.21,19.21,0,0,0,36.76,19c-.21-2.51-.83-5.52-2.9-7.2s-4.66-.56-6,1.55c-2.74,4.33-1.29,10.75,3.65,12.51m3.39-4.72L33.59,21a8.56,8.56,0,0,1-3.27-1.06,6.23,6.23,0,0,1-1.35-1l-.17-.2a4.16,4.16,0,0,1,.79-1.24,3.33,3.33,0,0,1,1.8-1,3.26,3.26,0,0,1,3.28,2.13A4.57,4.57,0,0,1,34.91,21.16Z"/><path class="cls-3" d="M44.17,23.31c-.09.94-.16,1.05-.19.89s-.09-.44-.16-.81a6.93,6.93,0,0,0-.75-2.05c-1.12-2.17-3.21-3.62-5-5.14-2.53-2.07-5.42-3.62-8-5.62A9.23,9.23,0,0,1,26.86,7.2a7.53,7.53,0,0,1-.06-4.46,9.09,9.09,0,0,0,3.53,3.8c1.33.89,2.73,1.65,4.1,2.45,3.55,2.06,7.27,4.7,9.18,8.45C44.4,19,44.34,21.59,44.17,23.31Z"/><path class="cls-3" d="M22.62.3A14.71,14.71,0,0,0,17,.24C11.26,1,6.41,5.78,5.74,6.55h0l0,0a20.77,20.77,0,0,0-3.56,5.05A18.58,18.58,0,0,0,0,20.17a12.89,12.89,0,0,0,1.61,6.2c2,3.39,6.29,5.43,10.15,4A8,8,0,0,0,15.13,28a13.26,13.26,0,0,0,2.58-5.29,23.5,23.5,0,0,0,.45-2.47c.16-.9.1-.29.34-1.83.16-1,.46-3-.21-3.9a3.16,3.16,0,0,0-2.46-1,12.51,12.51,0,0,1-3-.47,2.48,2.48,0,0,1-1-.56l-.13-.16a1.45,1.45,0,0,1-.23-.86,2.08,2.08,0,0,1,.1-.93,5,5,0,0,1,2-1.78c1.93-1,3.57-.7,4.49,1.51.21.51,1-1.52,1.06-1.66.27-.72,1.09-2.47.76-3.28-1.13-2.72-3.4-2.31-5.41-.67a12,12,0,0,0-3.2,3.86,10,10,0,0,0-.46,1.06h0v0c-.07.19-.13.39-.2.59-.75,2.2-2.3,6.63.19,7.89,1.34.67,2.94.43,4.37.75a2,2,0,0,1,1.65,1.75c0,.06,0,.11,0,.17A8.35,8.35,0,0,1,16,22.27a7.33,7.33,0,0,1-3.83,3,8.06,8.06,0,0,1-4.74.12A8.68,8.68,0,0,1,2,20.49a7.59,7.59,0,0,1-.49-3.87c.25-3.07,1.76-5.8,4.08-8.71,3-3.45,5.8-5.56,9.29-6.71A16.66,16.66,0,0,1,21.43.5a17.45,17.45,0,0,1,3.44.66A9,9,0,0,0,22.62.3Z"/><path class="cls-2" d="M6.66,14.85s-1.43,1.06-.58,5.33a7.08,7.08,0,0,1-1-6.26A2.9,2.9,0,0,0,6.66,14.85Z"/><path class="cls-5" d="M35.93,26.65l-4.45-.76a5.59,5.59,0,0,1-2.84.48,5.88,5.88,0,0,1-1.23-.29c-1.16-.29,5.71,4.58,5.71,4.58A8.17,8.17,0,0,0,35.93,26.65Z"/><path class="cls-6" d="M16.79,20.74s.32,5-1.55,7.09-3-2.57-3-2.57a6.77,6.77,0,0,0,3-2A8.89,8.89,0,0,0,16.79,20.74Z"/><path class="cls-7" d="M22.64,25.8a20.63,20.63,0,0,0-.38,2.29c-.05.4-.13.91-.22,1.45-.27,1.57-.58,2.23-1,1.69A12.58,12.58,0,0,1,20,28.4a17.68,17.68,0,0,0,.68-2.32c.27-1.2.51-2.65.7-3.77.08-.51.14-1,.2-1.28a11.74,11.74,0,0,1,.69-2.6A21.12,21.12,0,0,0,22.64,25.8Z"/><path class="cls-2" d="M25.18,11.22h-.64s-.2.55-.22.6a6.32,6.32,0,0,1-.33.56,3.93,3.93,0,0,1-.91.91,3.06,3.06,0,0,1-1,.51,3.67,3.67,0,0,1-1.16.17,11.43,11.43,0,0,0,1.45-1,8,8,0,0,0,.74-.68c.17-.17.34-.34.49-.52a3.64,3.64,0,0,0,.37-.59s-.2,0-.23,0l-.23,0a1.59,1.59,0,0,1-.42-.19,1.15,1.15,0,0,1-.48-.75,1.36,1.36,0,0,1,0-.2,2.15,2.15,0,0,1,.25-.92,1.59,1.59,0,0,1,.79-.86.73.73,0,0,1,.73.12A1.13,1.13,0,0,1,24.6,9a6,6,0,0,1,0,1.2l.53,0Zm-1.45-2a.42.42,0,0,0-.5.1.48.48,0,0,0-.06.49.28.28,0,0,0,.17.18,2,2,0,0,0,.35.11l.21.05a1.43,1.43,0,0,0,.22,0,1.77,1.77,0,0,0,0-.21c0-.09,0-.18-.05-.27a.89.89,0,0,0-.15-.36A.4.4,0,0,0,23.73,9.22Z"/><path class="cls-8" d="M24.54,11.21l-.61,0-.1.18a2.12,2.12,0,0,1-.18.29c0,.08-.13.16-.2.25s-.23.24-.34.36l-.23.22c-.51.5.65.42.65.42a3.27,3.27,0,0,0,.52-.63,3.47,3.47,0,0,0,.27-.46c.05-.12.08-.24.12-.35A1.63,1.63,0,0,0,24.54,11.21Z"/><path class="cls-9" d="M24.65,10.22a5.67,5.67,0,0,0,0-1c0-.07-.05-.34-.06-.38-.14-.32-.92.39-.92.39a.41.41,0,0,1,.29.23,1.41,1.41,0,0,1,.15.52l0,.19s0,0,0,.06Z"/><path class="cls-10" d="M6.08,20.18S4.67,16.57,5.6,14.4a2.35,2.35,0,0,0,1.06.45A2.53,2.53,0,0,0,6,16.05a5.41,5.41,0,0,0-.17.94,10,10,0,0,0,.09,2.32A8.67,8.67,0,0,0,6.08,20.18Z"/></g></g></g></svg>